<?xml version="1.0" encoding="iso-8859-1"?>
<!-- Uploaded to: SVG Repo, www.svgrepo.com, Generator: SVG Repo Mixer Tools -->
<!DOCTYPE svg PUBLIC "-//W3C//DTD SVG 1.1//EN" "http://www.w3.org/Graphics/SVG/1.1/DTD/svg11.dtd">
<svg fill="#000000" version="1.1" id="Capa_1" xmlns="http://www.w3.org/2000/svg" xmlns:xlink="http://www.w3.org/1999/xlink" 
	 width="800px" height="800px" viewBox="0 0 589.385 589.385"
	 xml:space="preserve">
<g>
	<g>
		<path d="M240.703,216.074h107.424c1.98,0,3.586-1.606,3.586-3.586V87.249c0-1.979-1.605-3.586-3.586-3.586H240.703
			c-1.979,0-3.586,1.606-3.586,3.586v125.23C237.117,214.468,238.723,216.074,240.703,216.074z M253.851,90.834h81.127
			c5.279,0,9.562,4.284,9.562,9.562v98.934c0,5.278-4.283,9.562-9.562,9.562h-81.127c-5.278,0-9.562-4.284-9.562-9.562v-98.934
			C244.289,95.118,248.563,90.834,253.851,90.834z"/>
		<path d="M262.477,540.434c8.625,0.928,20.1,1.436,32.302,1.436c12.202,0,23.706-0.508,32.407-1.436
			c19.479-2.064,35.324-20.492,35.324-41.08V331.676c0-9.506-7.727-17.232-17.232-17.232H244.671
			c-9.495,0-17.222,7.727-17.222,17.232v167.688C227.449,519.941,243.16,538.369,262.477,540.434z M234.621,331.676
			c0-5.547,4.513-10.061,10.05-10.061h100.606c5.547,0,10.061,4.514,10.061,10.061v167.688c0,17.031-12.967,32.254-28.908,33.947
			c-16.906,1.797-46.416,1.797-63.188,0c-15.788-1.684-28.63-16.916-28.63-33.947V331.676H234.621z"/>
		<path d="M270.318,379.316c3.442,5.977,11.551,10.652,18.456,10.652h11.857c6.904,0,15.004-4.676,18.455-10.652l5.93-10.271
			c3.451-5.977,3.451-15.338,0-21.305l-5.93-10.27c-3.451-5.977-11.551-10.652-18.455-10.652h-11.857
			c-6.895,0-15.003,4.676-18.456,10.652l-5.929,10.27c-3.452,5.977-3.452,15.338,0,21.305L270.318,379.316z M270.595,351.326
			l5.929-10.27c2.18-3.768,7.898-7.066,12.24-7.066h11.857c4.352,0,10.07,3.299,12.24,7.066l5.928,10.27
			c2.172,3.758,2.172,10.365,0,14.133l-5.928,10.271c-2.17,3.768-7.898,7.066-12.24,7.066h-11.857
			c-4.351,0-10.069-3.299-12.24-7.066l-5.929-10.271C268.424,361.691,268.424,355.084,270.595,351.326z"/>
		<path d="M283.896,361.979h21.037c1.98,0,3.586-1.605,3.586-3.586c0-1.979-1.605-3.586-3.586-3.586h-21.037
			c-1.979,0-3.586,1.607-3.586,3.586C280.311,360.373,281.917,361.979,283.896,361.979z"/>
		<path d="M243.256,416.543h21.038c1.979,0,3.586-1.607,3.586-3.586c0-1.98-1.606-3.586-3.586-3.586h-21.038
			c-1.979,0-3.586,1.605-3.586,3.586C239.67,414.936,241.276,416.543,243.256,416.543z"/>
		<path d="M303.797,409.371h-21.039c-1.979,0-3.586,1.605-3.586,3.586c0,1.979,1.607,3.586,3.586,3.586h21.039
			c1.979,0,3.586-1.607,3.586-3.586C307.383,410.977,305.775,409.371,303.797,409.371z"/>
		<path d="M318.676,412.957c0,1.979,1.605,3.586,3.586,3.586h21.027c1.98,0,3.586-1.607,3.586-3.586c0-1.98-1.605-3.586-3.586-3.586
			h-21.027C320.281,409.371,318.676,410.977,318.676,412.957z"/>
		<path d="M243.256,444.111h21.038c1.979,0,3.586-1.607,3.586-3.586c0-1.98-1.606-3.586-3.586-3.586h-21.038
			c-1.979,0-3.586,1.605-3.586,3.586C239.67,442.504,241.276,444.111,243.256,444.111z"/>
		<path d="M303.797,436.939h-21.039c-1.979,0-3.586,1.605-3.586,3.586c0,1.979,1.607,3.586,3.586,3.586h21.039
			c1.979,0,3.586-1.607,3.586-3.586C307.383,438.545,305.775,436.939,303.797,436.939z"/>
		<path d="M343.299,436.939h-21.027c-1.98,0-3.586,1.605-3.586,3.586c0,1.979,1.605,3.586,3.586,3.586h21.027
			c1.979,0,3.586-1.607,3.586-3.586C346.885,438.545,345.277,436.939,343.299,436.939z"/>
		<path d="M243.256,471.68h21.038c1.979,0,3.586-1.605,3.586-3.586c0-1.979-1.606-3.586-3.586-3.586h-21.038
			c-1.979,0-3.586,1.607-3.586,3.586C239.67,470.074,241.276,471.68,243.256,471.68z"/>
		<path d="M303.797,464.508h-21.039c-1.979,0-3.586,1.607-3.586,3.586c0,1.98,1.607,3.586,3.586,3.586h21.039
			c1.979,0,3.586-1.605,3.586-3.586C307.383,466.115,305.775,464.508,303.797,464.508z"/>
		<path d="M343.299,464.508h-21.027c-1.98,0-3.586,1.607-3.586,3.586c0,1.98,1.605,3.586,3.586,3.586h21.027
			c1.979,0,3.586-1.605,3.586-3.586C346.885,466.115,345.277,464.508,343.299,464.508z"/>
		<path d="M264.284,499.248c1.979,0,3.586-1.605,3.586-3.586c0-1.979-1.606-3.586-3.586-3.586h-21.038
			c-1.979,0-3.586,1.607-3.586,3.586c0,1.98,1.607,3.586,3.586,3.586H264.284z"/>
		<path d="M303.797,492.076h-21.039c-1.979,0-3.586,1.607-3.586,3.586c0,1.98,1.607,3.586,3.586,3.586h21.039
			c1.979,0,3.586-1.605,3.586-3.586C307.383,493.684,305.775,492.076,303.797,492.076z"/>
		<path d="M343.299,492.076h-21.027c-1.98,0-3.586,1.607-3.586,3.586c0,1.98,1.605,3.586,3.586,3.586h21.027
			c1.979,0,3.586-1.605,3.586-3.586C346.885,493.684,345.277,492.076,343.299,492.076z"/>
		<path d="M260.086,588.047c9.429,0.859,21.908,1.338,35.123,1.338c13.941,0,27.109-0.516,37.055-1.463l4.188-0.402
			c22.961-2.18,42.496-22.691,43.559-45.717l5.469-118.738l-5.402-112.131c-0.334-6.98-2.41-13.502-5.738-19.277
			c-2.639-4.581-5.191-12.02-4.723-17.279c15.844-177.27,4.695-235.257-5.145-253.913c-2.467-4.667-9.199-10.27-14.039-12.383
			C337.016,2.219,314.869,0,296.175,0c-23.849,0-52.89,3.567-62.902,13.56c-16.639,16.629-19.89,65.666-19.89,144.738
			c0,47.411,4.972,92.498,7.755,114.071c0.679,5.24-1.845,12.47-4.743,16.897c-4.141,6.33-6.732,13.732-7.115,21.658l-5.374,110.143
			l5.499,120.727c1.052,23.055,20.598,43.508,43.576,45.604L260.086,588.047z M296.184,14.124c25.811,0,47.01,3.863,52.93,9.782
			c0.172,0.182,0.324,0.334,0.506,0.478c0.307,0.239,3.156,3.873,4.857,8.865c6.207,18.159,15.262,72.637,1.654,230.724
			c-0.449,5.26-1.75,9.056-2.906,8.54c-1.156-0.517-2.123-1.712-2.123-2.726v-1.836c0-7.879-6.406-14.286-14.287-14.286h-84.216
			c-7.88,0-14.287,6.407-14.287,14.286c0,0,0,0.823,0,1.836c0,1.014-0.603,2.056-1.339,2.343c-0.736,0.287-1.884-3.672-2.515-8.922
			c-2.783-22.959-6.704-62.807-6.704-104.891c0-41.559,0-118.91,15.692-134.592C249.166,17.987,270.375,14.124,296.184,14.124z
			 M327.244,288.51l-65.036,0.048c-5.278,0-9.562-4.274-9.562-9.553v-1.425c0-5.278,4.284-9.562,9.562-9.572l64.977-0.048
			c5.279,0,9.572,4.274,9.592,9.553v1.425C336.797,284.226,332.521,288.51,327.244,288.51z M231.016,293.531
			c3.471-3.978,7.277-5.881,7.277-5.556v0.583c0,7.879,6.407,14.286,14.286,14.286h84.218c7.879,0,14.285-6.406,14.285-14.286
			c0,0,0-0.268,0-0.583c0-0.325,3.807,1.578,7.277,5.556c4.303,4.934,7.057,11.227,7.393,18.112l5.402,111.451l-5.471,118.059
			c-0.744,16.17-14.467,30.57-30.58,32.092l-4.188,0.4c-9.545,0.908-22.225,1.396-35.707,1.396c-12.804,0-24.824-0.449-33.832-1.281
			l-7.105-0.641c-16.104-1.463-29.807-15.807-30.543-31.967l-5.498-120.049l5.374-109.461
			C223.949,304.766,226.713,298.465,231.016,293.531z"/>
	</g>
</g>
</svg>